<?xml version="1.0" encoding="utf-8"?>
<svg viewBox="0 100 500 300" xmlns="http://www.w3.org/2000/svg">
  <g id="chromsomeConnected" transform="matrix(0, 0.700665, -0.700665, 0, 602.585388, -343.814667)" style="">
    <path d="M 824.4 238 l 0 220 a 30 30 0 0 0 8.79 21.21 l 10 10 a 30 30 0 0 1 8.79 21.21 a 30 30 0 0 1 -8.79 21.21 l -10 10 a 30 30 0 0 0 -8.79 21.21 l 0 220 a 50 50 0 0 0 100 0 l 0 -220 a 30 30 0 0 0 -8.79 -21.21 l -10 -10 a 30 30 0 0 1 -8.79 -21.21 a 30 30 0 0 1 8.79 -21.21 l 10 -10 a 30 30 0 0 0 8.79 -21.21 l 0 -220 a 50 50 0 0 0 -100 0" stroke="rgb(25, 50, 50)" fill="rgb(50, 100, 100)" stroke-width="5" fill-opacity="1.0"/>
    <rect x="824.4" y="238" width="100" height="78" stroke="rgb(25, 50, 50)" fill="rgb(100, 100, 100)" stroke-width="5"/>
    <rect x="824.4" y="316" width="100" height="40" stroke="rgb(25, 50, 50)" fill="rgb(100, 100, 100)" stroke-width="5"/>
    <rect x="824.4" y="356" width="100" height="104" stroke="rgb(25, 50, 50)" fill="rgb(100, 100, 100)" stroke-width="5"/>
    <rect x="824.4" y="563" width="100" height="40" stroke="rgb(25, 50, 50)" fill="rgb(100, 100, 100)" stroke-width="5"/>
    <rect x="824.4" y="603" width="100" height="104" stroke="rgb(25, 50, 50)" fill="rgb(100, 100, 100)" stroke-width="5"/>
    <rect x="824.4" y="707" width="100" height="40" stroke="rgb(25, 50, 50)" fill="rgb(100, 100, 100)" stroke-width="5"/>
    <rect x="824.4" y="747" width="100" height="40" stroke="rgb(25, 50, 50)" fill="rgb(100, 100, 100)" stroke-width="5"/>
  </g>
  <text style="fill: rgb(200, 200, 200); font-family: Arial, sans-serif; font-size: 12px; white-space: pre;" x="16.074" y="170.177">Flowering Season</text>
  <text style="fill: rgb(200, 200, 200); font-family: Arial, sans-serif; font-size: 12px; white-space: pre;" x="24.637" y="349.501">Flower Colour</text>
  <text style="fill: rgb(200, 200, 200); font-family: Arial, sans-serif; font-size: 12px; white-space: pre;" x="105.707" y="209.258">Flower Shape</text>
  <text style="fill: rgb(200, 200, 200); font-family: Arial, sans-serif; font-size: 12px; white-space: pre;" x="125.109" y="350.055">Wood Type</text>
  <text style="fill: rgb(200, 200, 200); font-family: Arial, sans-serif; font-size: 12px; white-space: pre;" x="250.801" y="348.947">Leaf Shape</text>
  <text style="fill: rgb(200, 200, 200); font-family: Arial, sans-serif; font-size: 12px; white-space: pre;" x="250.801" y="347.838" transform="matrix(1, 0, 0, 1, 49.464889, -143.56971)">Leaf Pattern</text>
  <text style="fill: rgb(200, 200, 200); font-family: Arial, sans-serif; font-size: 12px; white-space: pre;" x="380.314" y="348.947">Leaf Colour</text>
  <path style="fill: none; stroke: rgb(200, 200, 200);" d="M 67.073 179.416 L 67.073 232.077"/>
  <path style="fill: none; stroke: rgb(200, 200, 200);" d="M 64.302 336.29 L 92.018 314.117 L 92.018 305.5"/>
  <path style="fill: none; stroke: rgb(200, 200, 200);" d="M 143.57 213.353 L 143.57 232.2"/>
  <path style="fill: none; stroke: rgb(200, 200, 200);" d="M 155.21 335.304 L 194.012 305.925"/>
  <path style="fill: none; stroke: rgb(200, 200, 200);" d="M 319.845 305.925 L 281.042 334.196"/>
  <path style="fill: none; stroke: rgb(200, 200, 200);" d="M 366.962 231.646 L 334.812 209.473"/>
  <path style="fill: none; stroke: rgb(200, 200, 200);" d="M 407.982 335.859 L 407.982 305.925"/>
</svg>
